<svg t="1716973461672" class="icon" viewBox="0 0 1024 1024" version="1.1" xmlns="http://www.w3.org/2000/svg" p-id="875" width="200" height="200"><path d="M512.032914 749.421714c-47.104 0-85.357714 37.888-85.357714 84.553143 0 46.665143 38.253714 84.553143 85.357714 84.553143s85.357714-37.888 85.357715-84.553143c0-46.665143-38.253714-84.553143-85.357715-84.553143M314.839771 607.597714a41.910857 41.910857 0 0 0-6.875428 59.392c14.628571 18.432 41.545143 21.357714 59.904 6.802286a231.862857 231.862857 0 0 1 288.329143 0 42.715429 42.715429 0 0 0 59.904-6.802286 41.910857 41.910857 0 0 0-6.948572-59.392 319.049143 319.049143 0 0 0-394.24 0M512.032914 307.2c140.434286 0 272.457143 56.612571 372.150857 159.378286a42.057143 42.057143 0 0 1-1.170285 59.757714 42.642286 42.642286 0 0 1-29.622857 11.702857 42.496 42.496 0 0 1-30.72-12.873143C739.214629 439.149714 628.842057 391.753143 512.032914 391.753143s-227.181714 47.396571-310.637714 133.412571a42.934857 42.934857 0 0 1-60.269714 1.170286 42.057143 42.057143 0 0 1-1.243429-59.757714C239.575771 363.812571 371.671771 307.2 512.032914 307.2zM512.032914 73.142857c193.828571 0 376.685714 82.432 501.76 226.011429a42.057143 42.057143 0 0 1-4.608 59.611428 42.569143 42.569143 0 0 1-27.794285 10.24 42.422857 42.422857 0 0 1-32.329143-14.701714C840.298057 229.376 680.992914 157.696 512.032914 157.696c-168.96 0-328.265143 71.68-437.028571 196.608a42.715429 42.715429 0 0 1-60.196572 4.461714 41.984 41.984 0 0 1-4.388571-59.611428C135.200914 155.574857 318.204343 73.142857 512.032914 73.142857z" p-id="876"></path></svg>